<svg xmlns="http://www.w3.org/2000/svg" xmlns:xlink="http://www.w3.org/1999/xlink" width="180" zoomAndPan="magnify" viewBox="0 0 135 44.999999" height="60" preserveAspectRatio="xMidYMid meet" version="1.0"><defs><g/><clipPath id="2671750040"><path d="M 32.921875 3.441406 L 71.136719 3.441406 L 71.136719 41.65625 L 32.921875 41.65625 Z M 32.921875 3.441406 " clip-rule="nonzero"/></clipPath><clipPath id="90c6cb08d2"><path d="M 48 18 L 71.136719 18 L 71.136719 41.65625 L 48 41.65625 Z M 48 18 " clip-rule="nonzero"/></clipPath><clipPath id="6e95f21e26"><path d="M 34 4 L 42 4 L 42 42 L 34 42 Z M 34 4 " clip-rule="nonzero"/></clipPath><clipPath id="5a0cca69c9"><path d="M 0 7.015625 L 39.535156 4.765625 L 41.898438 46.238281 L 2.363281 48.488281 Z M 0 7.015625 " clip-rule="nonzero"/></clipPath><clipPath id="a2da0971b4"><path d="M 0 7.015625 L 65.800781 3.269531 L 68.226562 45.847656 L 2.425781 49.59375 Z M 0 7.015625 " clip-rule="nonzero"/></clipPath><clipPath id="a72034498a"><path d="M 0 7.015625 L 65.800781 3.269531 L 68.226562 45.847656 L 2.425781 49.59375 Z M 0 7.015625 " clip-rule="nonzero"/></clipPath><clipPath id="b0c886816e"><path d="M 2 6 L 40 6 L 40 9 L 2 9 Z M 2 6 " clip-rule="nonzero"/></clipPath><clipPath id="65cd691c2f"><path d="M 0 7.015625 L 39.535156 4.765625 L 41.898438 46.238281 L 2.363281 48.488281 Z M 0 7.015625 " clip-rule="nonzero"/></clipPath><clipPath id="be7ee62882"><path d="M 0 7.015625 L 65.800781 3.269531 L 68.226562 45.847656 L 2.425781 49.59375 Z M 0 7.015625 " clip-rule="nonzero"/></clipPath><clipPath id="63d6cd3314"><path d="M 0 7.015625 L 65.800781 3.269531 L 68.226562 45.847656 L 2.425781 49.59375 Z M 0 7.015625 " clip-rule="nonzero"/></clipPath><clipPath id="d041282daa"><path d="M 13 10 L 36 10 L 36 13 L 13 13 Z M 13 10 " clip-rule="nonzero"/></clipPath><clipPath id="4e0f75127e"><path d="M 0 7.015625 L 39.535156 4.765625 L 41.898438 46.238281 L 2.363281 48.488281 Z M 0 7.015625 " clip-rule="nonzero"/></clipPath><clipPath id="04ae04ef9a"><path d="M 0 7.015625 L 65.800781 3.269531 L 68.226562 45.847656 L 2.425781 49.59375 Z M 0 7.015625 " clip-rule="nonzero"/></clipPath><clipPath id="32c0c8e8c7"><path d="M 0 7.015625 L 65.800781 3.269531 L 68.226562 45.847656 L 2.425781 49.59375 Z M 0 7.015625 " clip-rule="nonzero"/></clipPath><clipPath id="bf13b1e2fd"><path d="M 0 15 L 34 15 L 34 18 L 0 18 Z M 0 15 " clip-rule="nonzero"/></clipPath><clipPath id="51d3ed24b3"><path d="M 0 7.015625 L 39.535156 4.765625 L 41.898438 46.238281 L 2.363281 48.488281 Z M 0 7.015625 " clip-rule="nonzero"/></clipPath><clipPath id="d77c75cf41"><path d="M 0 7.015625 L 65.800781 3.269531 L 68.226562 45.847656 L 2.425781 49.59375 Z M 0 7.015625 " clip-rule="nonzero"/></clipPath><clipPath id="8e52d21cda"><path d="M 0 7.015625 L 65.800781 3.269531 L 68.226562 45.847656 L 2.425781 49.59375 Z M 0 7.015625 " clip-rule="nonzero"/></clipPath><clipPath id="e33ea1059b"><path d="M 11 19 L 33 19 L 33 23 L 11 23 Z M 11 19 " clip-rule="nonzero"/></clipPath><clipPath id="f4dfbeddad"><path d="M 0 7.015625 L 39.535156 4.765625 L 41.898438 46.238281 L 2.363281 48.488281 Z M 0 7.015625 " clip-rule="nonzero"/></clipPath><clipPath id="6d0c0b4e9e"><path d="M 0 7.015625 L 65.800781 3.269531 L 68.226562 45.847656 L 2.425781 49.59375 Z M 0 7.015625 " clip-rule="nonzero"/></clipPath><clipPath id="d821cc8d71"><path d="M 0 7.015625 L 65.800781 3.269531 L 68.226562 45.847656 L 2.425781 49.59375 Z M 0 7.015625 " clip-rule="nonzero"/></clipPath><clipPath id="297078237f"><path d="M 5 24 L 33 24 L 33 27 L 5 27 Z M 5 24 " clip-rule="nonzero"/></clipPath><clipPath id="a2c8a89afe"><path d="M 0 7.015625 L 39.535156 4.765625 L 41.898438 46.238281 L 2.363281 48.488281 Z M 0 7.015625 " clip-rule="nonzero"/></clipPath><clipPath id="e25ed2f3bf"><path d="M 0 7.015625 L 65.800781 3.269531 L 68.226562 45.847656 L 2.425781 49.59375 Z M 0 7.015625 " clip-rule="nonzero"/></clipPath><clipPath id="e0fb02887b"><path d="M 0 7.015625 L 65.800781 3.269531 L 68.226562 45.847656 L 2.425781 49.59375 Z M 0 7.015625 " clip-rule="nonzero"/></clipPath><clipPath id="3e6cb56fe5"><path d="M 13 28 L 34 28 L 34 31 L 13 31 Z M 13 28 " clip-rule="nonzero"/></clipPath><clipPath id="893616794a"><path d="M 0 7.015625 L 39.535156 4.765625 L 41.898438 46.238281 L 2.363281 48.488281 Z M 0 7.015625 " clip-rule="nonzero"/></clipPath><clipPath id="86d30fdcbb"><path d="M 0 7.015625 L 65.800781 3.269531 L 68.226562 45.847656 L 2.425781 49.59375 Z M 0 7.015625 " clip-rule="nonzero"/></clipPath><clipPath id="9bf8254357"><path d="M 0 7.015625 L 65.800781 3.269531 L 68.226562 45.847656 L 2.425781 49.59375 Z M 0 7.015625 " clip-rule="nonzero"/></clipPath><clipPath id="acaa34b1c1"><path d="M 11 32 L 36 32 L 36 35 L 11 35 Z M 11 32 " clip-rule="nonzero"/></clipPath><clipPath id="8c41653cc4"><path d="M 0 7.015625 L 39.535156 4.765625 L 41.898438 46.238281 L 2.363281 48.488281 Z M 0 7.015625 " clip-rule="nonzero"/></clipPath><clipPath id="8305843040"><path d="M 0 7.015625 L 65.800781 3.269531 L 68.226562 45.847656 L 2.425781 49.59375 Z M 0 7.015625 " clip-rule="nonzero"/></clipPath><clipPath id="9db8022ada"><path d="M 0 7.015625 L 65.800781 3.269531 L 68.226562 45.847656 L 2.425781 49.59375 Z M 0 7.015625 " clip-rule="nonzero"/></clipPath><clipPath id="637759f91d"><path d="M 29 37 L 39 37 L 39 39 L 29 39 Z M 29 37 " clip-rule="nonzero"/></clipPath><clipPath id="8b44f272bf"><path d="M 0 7.015625 L 39.535156 4.765625 L 41.898438 46.238281 L 2.363281 48.488281 Z M 0 7.015625 " clip-rule="nonzero"/></clipPath><clipPath id="2107a9f23e"><path d="M 0 7.015625 L 65.800781 3.269531 L 68.226562 45.847656 L 2.425781 49.59375 Z M 0 7.015625 " clip-rule="nonzero"/></clipPath><clipPath id="0d18238627"><path d="M 0 7.015625 L 65.800781 3.269531 L 68.226562 45.847656 L 2.425781 49.59375 Z M 0 7.015625 " clip-rule="nonzero"/></clipPath></defs><path fill="#ffffff" d="M 52.03125 7.167969 C 51.027344 7.167969 50.03125 7.265625 49.046875 7.460938 C 48.0625 7.65625 47.109375 7.949219 46.179688 8.332031 C 45.253906 8.714844 44.371094 9.1875 43.539062 9.746094 C 42.703125 10.300781 41.929688 10.9375 41.222656 11.644531 C 40.511719 12.355469 39.878906 13.128906 39.320312 13.960938 C 38.761719 14.796875 38.292969 15.675781 37.90625 16.605469 C 37.523438 17.53125 37.234375 18.488281 37.039062 19.472656 C 36.84375 20.457031 36.746094 21.449219 36.746094 22.453125 C 36.746094 23.457031 36.84375 24.453125 37.039062 25.4375 C 37.234375 26.421875 37.523438 27.375 37.90625 28.304688 C 38.292969 29.230469 38.761719 30.113281 39.320312 30.945312 C 39.878906 31.78125 40.511719 32.554688 41.222656 33.261719 C 41.929688 33.972656 42.703125 34.605469 43.539062 35.164062 C 44.371094 35.722656 45.253906 36.191406 46.179688 36.578125 C 47.109375 36.960938 48.0625 37.25 49.046875 37.445312 C 50.03125 37.644531 51.027344 37.742188 52.03125 37.742188 C 53.035156 37.742188 54.027344 37.644531 55.011719 37.445312 C 55.996094 37.25 56.953125 36.960938 57.878906 36.578125 C 58.808594 36.191406 59.6875 35.722656 60.523438 35.164062 C 61.359375 34.605469 62.128906 33.972656 62.839844 33.261719 C 63.550781 32.554688 64.183594 31.78125 64.742188 30.945312 C 65.296875 30.113281 65.769531 29.230469 66.152344 28.304688 C 66.539062 27.375 66.828125 26.421875 67.023438 25.4375 C 67.21875 24.453125 67.316406 23.457031 67.316406 22.453125 C 67.316406 21.449219 67.21875 20.457031 67.023438 19.472656 C 66.828125 18.488281 66.539062 17.53125 66.152344 16.605469 C 65.769531 15.675781 65.296875 14.796875 64.742188 13.960938 C 64.183594 13.128906 63.550781 12.355469 62.839844 11.644531 C 62.128906 10.9375 61.359375 10.300781 60.523438 9.746094 C 59.6875 9.1875 58.808594 8.714844 57.878906 8.332031 C 56.953125 7.949219 55.996094 7.65625 55.011719 7.460938 C 54.027344 7.265625 53.035156 7.167969 52.03125 7.167969 Z M 52.03125 7.167969 " fill-opacity="1" fill-rule="nonzero"/><path fill="#758bfd" d="M 39.609375 22.453125 C 39.609375 15.59375 45.171875 10.035156 52.03125 10.035156 C 58.890625 10.035156 64.449219 15.59375 64.449219 22.453125 C 64.449219 22.453125 62.539062 12.902344 52.03125 12.902344 C 41.519531 12.902344 39.609375 22.453125 39.609375 22.453125 Z M 39.609375 22.453125 " fill-opacity="1" fill-rule="nonzero"/><path fill="#ffffff" d="M 39.609375 22.453125 C 39.609375 29.3125 45.171875 34.875 52.03125 34.875 C 58.890625 34.875 64.449219 29.3125 64.449219 22.453125 C 64.449219 22.453125 60.628906 26.277344 52.03125 26.277344 C 43.433594 26.277344 39.609375 22.453125 39.609375 22.453125 Z M 39.609375 22.453125 " fill-opacity="1" fill-rule="nonzero"/><path fill="#758bfd" d="M 39.609375 22.453125 C 39.609375 29.3125 45.171875 34.875 52.03125 34.875 C 58.890625 34.875 64.449219 29.3125 64.449219 22.453125 C 64.449219 22.453125 62.539062 32.007812 52.03125 32.007812 C 41.519531 32.007812 39.609375 22.453125 39.609375 22.453125 Z M 39.609375 22.453125 " fill-opacity="1" fill-rule="nonzero"/><g clip-path="url(#2671750040)"><path fill="#000000" d="M 52.03125 3.398438 C 41.480469 3.398438 32.921875 11.949219 32.921875 22.503906 C 32.921875 33.054688 41.480469 41.613281 52.03125 41.613281 C 62.582031 41.613281 71.136719 33.054688 71.136719 22.503906 C 71.136719 11.949219 62.582031 3.398438 52.03125 3.398438 Z M 52.03125 34.925781 C 45.171875 34.925781 39.609375 29.363281 39.609375 22.503906 C 39.609375 15.644531 45.171875 10.085938 52.03125 10.085938 C 58.890625 10.085938 64.449219 15.644531 64.449219 22.503906 C 64.449219 29.363281 58.890625 34.925781 52.03125 34.925781 Z M 52.03125 34.925781 " fill-opacity="1" fill-rule="nonzero"/></g><g clip-path="url(#90c6cb08d2)"><path fill="#000000" d="M 65.734375 41.5625 L 71.136719 41.5625 L 71.136719 36.160156 L 54.730469 19.753906 C 53.242188 18.257812 50.820312 18.257812 49.328125 19.753906 C 47.835938 21.246094 47.835938 23.664062 49.328125 25.15625 Z M 65.734375 41.5625 " fill-opacity="1" fill-rule="nonzero"/></g><g clip-path="url(#6e95f21e26)"><g clip-path="url(#5a0cca69c9)"><g clip-path="url(#a2da0971b4)"><g clip-path="url(#a72034498a)"><path fill="#000000" d="M 49.296875 37.382812 C 48.683594 37.253906 48.09375 37.082031 47.523438 36.875 C 45.742188 36.21875 44.199219 35.25 42.898438 33.984375 C 41.59375 32.71875 40.558594 31.191406 39.789062 29.386719 C 39.019531 27.59375 38.574219 25.609375 38.449219 23.453125 C 38.335938 21.433594 38.566406 19.496094 39.148438 17.660156 C 39.726562 15.816406 40.574219 14.195312 41.691406 12.792969 C 42.808594 11.390625 44.179688 10.238281 45.804688 9.355469 C 47.429688 8.472656 49.230469 7.976562 51.207031 7.863281 C 52.46875 7.789062 53.625 7.828125 54.675781 7.972656 C 55.726562 8.121094 56.695312 8.347656 57.585938 8.660156 C 58.476562 8.96875 59.308594 9.351562 60.089844 9.804688 C 60.867188 10.257812 61.613281 10.773438 62.332031 11.351562 L 64.761719 8.121094 C 63.832031 7.417969 62.882812 6.792969 61.910156 6.246094 C 60.941406 5.703125 59.90625 5.253906 58.808594 4.902344 C 57.710938 4.554688 56.535156 4.3125 55.28125 4.179688 C 54.023438 4.042969 52.644531 4.019531 51.148438 4.105469 C 48.453125 4.257812 46.035156 4.902344 43.894531 6.035156 C 41.753906 7.171875 39.949219 8.640625 38.480469 10.441406 C 37.007812 12.242188 35.902344 14.296875 35.164062 16.605469 C 34.421875 18.917969 34.121094 21.304688 34.261719 23.769531 C 34.410156 26.335938 34.964844 28.726562 35.925781 30.9375 C 36.890625 33.152344 38.214844 35.050781 39.894531 36.636719 C 41.574219 38.226562 43.558594 39.433594 45.84375 40.265625 C 47 40.6875 48.21875 40.980469 49.511719 41.144531 Z M 49.296875 37.382812 " fill-opacity="1" fill-rule="nonzero"/></g></g></g></g><g clip-path="url(#b0c886816e)"><g clip-path="url(#65cd691c2f)"><g clip-path="url(#be7ee62882)"><g clip-path="url(#63d6cd3314)"><path fill="#758bfd" d="M 39.722656 6.136719 L 2.019531 8.285156 L 37.308594 8.417969 C 38.050781 7.585938 38.859375 6.824219 39.722656 6.136719 " fill-opacity="1" fill-rule="evenodd"/></g></g></g></g><g clip-path="url(#d041282daa)"><g clip-path="url(#4e0f75127e)"><g clip-path="url(#04ae04ef9a)"><g clip-path="url(#32c0c8e8c7)"><path fill="#758bfd" d="M 35.511719 10.773438 L 13.046875 12.054688 L 34.246094 13 C 34.621094 12.230469 35.042969 11.488281 35.511719 10.773438 " fill-opacity="1" fill-rule="evenodd"/></g></g></g></g><g clip-path="url(#bf13b1e2fd)"><g clip-path="url(#51d3ed24b3)"><g clip-path="url(#d77c75cf41)"><g clip-path="url(#8e52d21cda)"><path fill="#758bfd" d="M 33.285156 15.300781 L 0.609375 17.160156 L 32.59375 17.660156 C 32.726562 17.082031 32.886719 16.503906 33.070312 15.929688 C 33.136719 15.71875 33.210938 15.507812 33.285156 15.300781 " fill-opacity="1" fill-rule="evenodd"/></g></g></g></g><g clip-path="url(#e33ea1059b)"><g clip-path="url(#f4dfbeddad)"><g clip-path="url(#6d0c0b4e9e)"><g clip-path="url(#d821cc8d71)"><path fill="#758bfd" d="M 32.214844 19.757812 L 11.132812 20.957031 L 32.039062 22.039062 C 32.058594 21.273438 32.117188 20.511719 32.214844 19.757812 " fill-opacity="1" fill-rule="evenodd"/></g></g></g></g><g clip-path="url(#297078237f)"><g clip-path="url(#a2c8a89afe)"><g clip-path="url(#e25ed2f3bf)"><g clip-path="url(#e0fb02887b)"><path fill="#758bfd" d="M 32.085938 24.164062 L 5.75 25.664062 L 32.339844 26.40625 C 32.21875 25.667969 32.136719 24.917969 32.085938 24.164062 " fill-opacity="1" fill-rule="evenodd"/></g></g></g></g><g clip-path="url(#3e6cb56fe5)"><g clip-path="url(#893616794a)"><g clip-path="url(#86d30fdcbb)"><g clip-path="url(#9bf8254357)"><path fill="#758bfd" d="M 32.78125 28.519531 L 13.0625 29.644531 L 33.46875 30.71875 C 33.199219 29.996094 32.972656 29.265625 32.78125 28.519531 " fill-opacity="1" fill-rule="evenodd"/></g></g></g></g><g clip-path="url(#acaa34b1c1)"><g clip-path="url(#8c41653cc4)"><g clip-path="url(#8305843040)"><g clip-path="url(#9db8022ada)"><path fill="#758bfd" d="M 34.382812 32.828125 L 11.558594 34.125 L 35.625 34.96875 C 35.167969 34.285156 34.753906 33.570312 34.382812 32.828125 " fill-opacity="1" fill-rule="evenodd"/></g></g></g></g><g clip-path="url(#637759f91d)"><g clip-path="url(#8b44f272bf)"><g clip-path="url(#2107a9f23e)"><g clip-path="url(#0d18238627)"><path fill="#758bfd" d="M 37.242188 37.0625 L 29.796875 37.488281 L 38.804688 38.625 C 38.664062 38.503906 38.527344 38.375 38.390625 38.246094 C 37.988281 37.867188 37.605469 37.472656 37.242188 37.0625 " fill-opacity="1" fill-rule="evenodd"/></g></g></g></g><g fill="#000000" fill-opacity="1"><g transform="translate(71.025636, 35.721616)"><g><path d="M 0.796875 -1.5 L 0.796875 -7.15625 L 2.6875 -7.15625 L 2.6875 -2.09375 L 3.171875 -1.609375 L 4.328125 -1.609375 L 5.734375 -3.015625 L 5.734375 -7.15625 L 7.625 -7.15625 L 7.625 0 L 5.875 0 L 5.875 -1.21875 L 4.640625 0 L 2.296875 0 Z M 0.796875 -1.5 "/></g></g></g><g fill="#000000" fill-opacity="1"><g transform="translate(79.507577, 35.721616)"><g><path d="M 0.796875 -8.640625 L 0.796875 -9.5625 L 1.453125 -10.21875 L 2.453125 -10.21875 L 3.109375 -9.5625 L 3.109375 -8.640625 L 2.453125 -7.984375 L 1.453125 -7.984375 Z M 1 -7.15625 L 2.90625 -7.15625 L 2.90625 0 L 1 0 Z M 1 -7.15625 "/></g></g></g><g fill="#000000" fill-opacity="1"><g transform="translate(83.41128, 35.721616)"><g><path d="M 0.71875 -1.46875 L 0.71875 -5.6875 L 2.171875 -7.15625 L 6.109375 -7.15625 L 7.578125 -5.65625 L 7.578125 -4.34375 L 5.6875 -4.34375 L 5.6875 -5.046875 L 5.1875 -5.546875 L 3.109375 -5.546875 L 2.609375 -5.046875 L 2.609375 -2.109375 L 3.109375 -1.609375 L 5.1875 -1.609375 L 5.6875 -2.109375 L 5.6875 -2.8125 L 7.578125 -2.8125 L 7.578125 -1.5 L 6.109375 0 L 2.171875 0 Z M 0.71875 -1.46875 "/></g></g></g><g fill="#000000" fill-opacity="1"><g transform="translate(91.419611, 35.721616)"><g><path d="M 0.859375 -10.25 L 2.75 -10.25 L 2.75 -4.515625 L 4 -4.515625 L 5.828125 -7.15625 L 7.921875 -7.15625 L 5.546875 -3.703125 L 8.0625 0 L 5.96875 0 L 3.96875 -2.921875 L 2.75 -2.921875 L 2.75 0 L 0.859375 0 Z M 0.859375 -10.25 "/></g></g></g><g fill="#000000" fill-opacity="1"><g transform="translate(99.557106, 35.721616)"><g/></g></g><g fill="#000000" fill-opacity="1"><g transform="translate(103.460809, 35.721616)"><g><path d="M 1.5 -1.46875 L 1.5 -5.5625 L 0.21875 -5.5625 L 0.21875 -7.15625 L 1.53125 -7.15625 L 1.53125 -9.484375 L 3.40625 -9.484375 L 3.40625 -7.15625 L 5.578125 -7.15625 L 5.578125 -5.546875 L 3.40625 -5.546875 L 3.40625 -2.078125 L 3.890625 -1.609375 L 5.578125 -1.609375 L 5.578125 0 L 2.984375 0 Z M 1.5 -1.46875 "/></g></g></g><g fill="#000000" fill-opacity="1"><g transform="translate(109.402474, 35.721616)"><g><path d="M 0.71875 -1.46875 L 0.71875 -5.65625 L 2.203125 -7.15625 L 6.234375 -7.15625 L 7.71875 -5.65625 L 7.71875 -2.9375 L 2.609375 -2.9375 L 2.609375 -2.03125 L 3.078125 -1.546875 L 5.40625 -1.546875 L 5.84375 -2 L 5.84375 -2.375 L 7.71875 -2.375 L 7.71875 -1.4375 L 6.296875 0 L 2.171875 0 Z M 5.828125 -4.265625 L 5.828125 -5.09375 L 5.34375 -5.59375 L 3.109375 -5.59375 L 2.609375 -5.09375 L 2.609375 -4.265625 Z M 5.828125 -4.265625 "/></g></g></g><g fill="#000000" fill-opacity="1"><g transform="translate(117.7696, 35.721616)"><g><path d="M 0.71875 -1.46875 L 0.71875 -5.6875 L 2.171875 -7.15625 L 6.109375 -7.15625 L 7.578125 -5.65625 L 7.578125 -4.34375 L 5.6875 -4.34375 L 5.6875 -5.046875 L 5.1875 -5.546875 L 3.109375 -5.546875 L 2.609375 -5.046875 L 2.609375 -2.109375 L 3.109375 -1.609375 L 5.1875 -1.609375 L 5.6875 -2.109375 L 5.6875 -2.8125 L 7.578125 -2.8125 L 7.578125 -1.5 L 6.109375 0 L 2.171875 0 Z M 0.71875 -1.46875 "/></g></g></g><g fill="#000000" fill-opacity="1"><g transform="translate(125.777931, 35.721616)"><g><path d="M 0.859375 -10.25 L 2.75 -10.25 L 2.75 -6.046875 L 3.859375 -7.15625 L 6.140625 -7.15625 L 7.734375 -5.5625 L 7.734375 0 L 5.84375 0 L 5.84375 -5.046875 L 5.359375 -5.546875 L 4.125 -5.546875 L 2.75 -4.171875 L 2.75 0 L 0.859375 0 Z M 0.859375 -10.25 "/></g></g></g></svg>